M48
;Layer_Color=9474304
;FILE_FORMAT=2:5
INCH,LZ
;TYPE=PLATED
T1F00S00C0.01181
T2F00S00C0.01968
T5F00S00C0.04724
T6F00S00C0.06693
T7F00S00C0.12992
%
T01
X01895Y03655
X01915Y037
X0197Y03675
X02235Y037
X0228Y03785
X02405Y03545
X02445Y04085
X02505Y042024
Y04305
X02425Y044
X0232Y04475
X02345Y04275
X0198Y0412
X019Y0403
X01855Y04175
T02
X0266217Y0417697
Y0422618
Y0427539
Y0432461
Y0437382
Y0442303
T05
X01655Y04495
T06
X01555Y04395
Y04595
X01755
Y04395
T07
X0162Y0353
X0273Y04575
M30
