G04 Layer_Physical_Order=1*
G04 Layer_Color=255*
%FSLAX25Y25*%
%MOIN*%
G70*
G01*
G75*
%ADD10R,0.01772X0.01181*%
%ADD11R,0.01181X0.01772*%
%ADD12R,0.03543X0.03150*%
%ADD13R,0.03150X0.07087*%
%ADD14R,0.04134X0.04331*%
%ADD15R,0.04331X0.08858*%
%ADD16R,0.08858X0.03346*%
%ADD17R,0.05315X0.01575*%
%ADD18R,0.02756X0.03543*%
%ADD19R,0.03150X0.03543*%
%ADD20R,0.03158X0.03827*%
%ADD21R,0.06693X0.07087*%
%ADD22R,0.05709X0.02362*%
%ADD23R,0.05100X0.05900*%
%ADD24R,0.01200X0.03200*%
%ADD25R,0.03543X0.02756*%
%ADD26C,0.01000*%
%ADD27C,0.15748*%
%ADD28C,0.07874*%
%ADD29C,0.11024*%
%ADD30C,0.03543*%
%ADD31R,0.03543X0.03543*%
%ADD32O,0.04921X0.03347*%
%ADD33O,0.07874X0.05217*%
%ADD34C,0.01575*%
G36*
X282500Y345000D02*
X275912D01*
X275778Y345500D01*
X276416Y345990D01*
X276994Y346743D01*
X277358Y347621D01*
X277416Y348063D01*
X272514D01*
X267612D01*
X267670Y347621D01*
X268033Y346743D01*
X268612Y345990D01*
X269250Y345500D01*
X269115Y345000D01*
X166887D01*
X166765Y345485D01*
X166954Y345586D01*
X168305Y346695D01*
X169414Y348046D01*
X170238Y349588D01*
X170746Y351260D01*
X170868Y352500D01*
X153132D01*
X153254Y351260D01*
X153762Y349588D01*
X154586Y348046D01*
X155695Y346695D01*
X157046Y345586D01*
X157235Y345485D01*
X157113Y345000D01*
X150000D01*
Y435149D01*
X150500Y435328D01*
X150873Y434873D01*
X151865Y434059D01*
X152996Y433455D01*
X154223Y433082D01*
X155000Y433006D01*
Y439500D01*
Y445994D01*
X154223Y445918D01*
X152996Y445545D01*
X151865Y444941D01*
X150873Y444127D01*
X150500Y443672D01*
X150000Y443851D01*
Y455149D01*
X150500Y455328D01*
X150873Y454873D01*
X151865Y454060D01*
X152996Y453455D01*
X154223Y453083D01*
X155000Y453006D01*
Y459500D01*
X155500D01*
Y460000D01*
X161994D01*
X161918Y460777D01*
X161545Y462004D01*
X160941Y463135D01*
X160127Y464127D01*
X159672Y464500D01*
X159851Y465000D01*
X171149D01*
X171328Y464500D01*
X170873Y464127D01*
X170059Y463135D01*
X169455Y462004D01*
X169082Y460777D01*
X169006Y460000D01*
X175500D01*
X181994D01*
X181918Y460777D01*
X181545Y462004D01*
X180940Y463135D01*
X180127Y464127D01*
X179672Y464500D01*
X179851Y465000D01*
X267362D01*
X267541Y464500D01*
X266695Y463805D01*
X265586Y462454D01*
X264762Y460912D01*
X264254Y459240D01*
X264132Y458000D01*
X281868D01*
X281746Y459240D01*
X281238Y460912D01*
X280414Y462454D01*
X279305Y463805D01*
X278459Y464500D01*
X278638Y465000D01*
X282500D01*
Y345000D01*
D02*
G37*
%LPC*%
G36*
X249772Y460831D02*
X247500D01*
Y458953D01*
X249772D01*
Y460831D01*
D02*
G37*
G36*
X242272D02*
X240000D01*
Y458953D01*
X242272D01*
Y460831D01*
D02*
G37*
G36*
X239000D02*
X236728D01*
Y458953D01*
X239000D01*
Y460831D01*
D02*
G37*
G36*
X246500D02*
X244228D01*
Y458953D01*
X246500D01*
Y460831D01*
D02*
G37*
G36*
X249772Y457953D02*
X247000D01*
X244228D01*
Y456649D01*
X242272D01*
Y457953D01*
X236728D01*
Y456075D01*
X239191D01*
X239383Y455613D01*
X238635Y454865D01*
X238474Y454625D01*
X237028D01*
Y453259D01*
X234592Y450822D01*
X234326Y450425D01*
X234233Y449957D01*
Y447998D01*
X233733Y447949D01*
X233684Y448197D01*
X233289Y448789D01*
X232697Y449184D01*
X232500Y449223D01*
Y447500D01*
X231500D01*
Y449223D01*
X231303Y449184D01*
X230711Y448789D01*
X230585Y448600D01*
X229500D01*
Y446000D01*
X228500D01*
Y448600D01*
X227500D01*
Y446000D01*
X226500D01*
Y448600D01*
X225500D01*
Y446000D01*
X224500D01*
Y448600D01*
X223500D01*
Y446000D01*
X223000D01*
Y445500D01*
X221400D01*
Y443400D01*
X222450D01*
Y441000D01*
X226000D01*
Y440000D01*
X222450D01*
Y437300D01*
X221700D01*
Y432700D01*
X221777D01*
Y423507D01*
X185135Y386865D01*
X184870Y386468D01*
X184776Y386000D01*
Y384743D01*
X183300D01*
Y376257D01*
X193013D01*
Y373243D01*
X191233Y371463D01*
X190920Y371401D01*
X190428Y371072D01*
X190099Y370580D01*
X189983Y370000D01*
X190099Y369420D01*
X190428Y368928D01*
X190920Y368599D01*
X191500Y368483D01*
X192080Y368599D01*
X192572Y368928D01*
X192901Y369420D01*
X192964Y369733D01*
X195101Y371871D01*
X195367Y372268D01*
X195460Y372736D01*
Y376257D01*
X197344D01*
Y369574D01*
X196733Y368964D01*
X196420Y368901D01*
X195928Y368572D01*
X195599Y368080D01*
X195484Y367500D01*
X195599Y366920D01*
X195928Y366428D01*
X196420Y366099D01*
X197000Y365984D01*
X197580Y366099D01*
X198072Y366428D01*
X198401Y366920D01*
X198463Y367233D01*
X199432Y368202D01*
X199697Y368599D01*
X199791Y369067D01*
Y376257D01*
X201674D01*
Y365102D01*
X201767Y364634D01*
X202032Y364237D01*
X205135Y361135D01*
X205532Y360870D01*
X206000Y360776D01*
X213500D01*
X213968Y360870D01*
X214365Y361135D01*
X220365Y367135D01*
X220630Y367532D01*
X220724Y368000D01*
Y382886D01*
X225327Y387490D01*
X239469Y373348D01*
Y370528D01*
X243625D01*
Y375472D01*
X240806D01*
X227065Y389212D01*
X227257Y389674D01*
X230456D01*
Y394420D01*
X220198D01*
Y389674D01*
X223397D01*
X223589Y389212D01*
X218635Y384258D01*
X218370Y383861D01*
X218277Y383393D01*
Y368507D01*
X215493Y365723D01*
X215031Y365914D01*
Y369972D01*
X215031D01*
Y370028D01*
X215031D01*
Y374972D01*
X210875D01*
Y370028D01*
X210875D01*
Y369972D01*
X210875D01*
Y365028D01*
X214145D01*
X214336Y364566D01*
X212993Y363224D01*
X206507D01*
X205464Y364266D01*
X205655Y364728D01*
X206547D01*
Y367500D01*
X207047D01*
Y368000D01*
X209425D01*
Y370272D01*
X209125D01*
Y374972D01*
X208452D01*
Y376257D01*
X208984D01*
Y375957D01*
X211059D01*
Y380500D01*
Y385043D01*
X208984D01*
Y384743D01*
X208452D01*
Y386722D01*
X212007Y390277D01*
X216000D01*
X216468Y390370D01*
X216865Y390635D01*
X217130Y391032D01*
X217224Y391500D01*
Y409493D01*
X231632Y423902D01*
X231897Y424298D01*
X231990Y424767D01*
Y426276D01*
X233654D01*
X233920Y426099D01*
X234500Y425983D01*
X235080Y426099D01*
X235572Y426428D01*
X235901Y426920D01*
X236017Y427500D01*
X235901Y428080D01*
X235572Y428572D01*
X235080Y428901D01*
X234500Y429016D01*
X233920Y428901D01*
X233654Y428723D01*
X231990D01*
Y433777D01*
X232433D01*
X232901Y433870D01*
X233298Y434135D01*
X235757Y436593D01*
X236257Y436386D01*
Y434395D01*
X242351D01*
Y428925D01*
X242444Y428457D01*
X242710Y428060D01*
X246135Y424635D01*
X246532Y424370D01*
X247000Y424276D01*
X254500D01*
X254968Y424370D01*
X255365Y424635D01*
X260865Y430135D01*
X261130Y430532D01*
X261224Y431000D01*
Y433000D01*
X261130Y433468D01*
X260865Y433865D01*
X257972Y436759D01*
Y437905D01*
X258472Y438056D01*
X258635Y437812D01*
X263745Y432702D01*
X263697Y432461D01*
X263888Y431496D01*
X264435Y430679D01*
X265014Y430291D01*
Y429709D01*
X264435Y429321D01*
X263888Y428504D01*
X263697Y427539D01*
X263888Y426575D01*
X264435Y425757D01*
X265014Y425370D01*
Y424788D01*
X264435Y424400D01*
X263888Y423583D01*
X263772Y422996D01*
X263272Y423045D01*
Y424831D01*
X261000D01*
Y422256D01*
Y419681D01*
X263245D01*
X263272Y419681D01*
X263745Y419617D01*
Y418582D01*
X263446Y418346D01*
X262972Y418556D01*
Y419019D01*
X258028D01*
Y417968D01*
X257180D01*
Y418381D01*
X251835D01*
X251683Y418881D01*
X251789Y418952D01*
X252184Y419543D01*
X252223Y419740D01*
X250500D01*
Y420240D01*
X250000D01*
Y421963D01*
X249803Y421924D01*
X249211Y421529D01*
X248816Y420938D01*
X248728Y420495D01*
X248228Y420545D01*
Y422421D01*
X244874D01*
Y420240D01*
Y418059D01*
X248228D01*
Y419936D01*
X248728Y419985D01*
X248816Y419543D01*
X249211Y418952D01*
X249679Y418639D01*
X249803Y418556D01*
X250072Y418181D01*
X250072Y417993D01*
Y414619D01*
X257180D01*
Y415521D01*
X258028D01*
Y414469D01*
X262972D01*
Y415521D01*
X263744D01*
X263745Y415520D01*
Y415225D01*
X268688D01*
Y420168D01*
X267899D01*
X267747Y420669D01*
X267999Y420836D01*
X268545Y421654D01*
X268737Y422618D01*
X268545Y423583D01*
X267999Y424400D01*
X267419Y424788D01*
Y425370D01*
X267999Y425757D01*
X268545Y426575D01*
X268737Y427539D01*
X268545Y428504D01*
X267999Y429321D01*
X267419Y429709D01*
Y430291D01*
X267999Y430679D01*
X268545Y431496D01*
X268737Y432461D01*
X268545Y433425D01*
X267999Y434243D01*
X267419Y434630D01*
Y435213D01*
X267999Y435600D01*
X268545Y436417D01*
X268737Y437382D01*
X268545Y438346D01*
X267999Y439164D01*
X267632Y439409D01*
X267712Y439957D01*
X268193Y440326D01*
X268638Y440905D01*
X268917Y441580D01*
X268946Y441803D01*
X266217D01*
Y442303D01*
X265717D01*
Y445033D01*
X265493Y445004D01*
X264819Y444724D01*
X264240Y444280D01*
X263796Y443701D01*
X263516Y443027D01*
X263440Y442449D01*
X263099Y442218D01*
X262934Y442175D01*
X262849Y442227D01*
Y453224D01*
X262756Y453693D01*
X262491Y454089D01*
X260290Y456290D01*
X259893Y456556D01*
X259425Y456649D01*
X249772D01*
Y457953D01*
D02*
G37*
G36*
X203972Y458929D02*
X201307D01*
Y454000D01*
X203972D01*
Y458929D01*
D02*
G37*
G36*
X200307D02*
X197642D01*
Y454000D01*
X200307D01*
Y458929D01*
D02*
G37*
G36*
X192358D02*
X189693D01*
Y454000D01*
X192358D01*
Y458929D01*
D02*
G37*
G36*
X188693D02*
X186028D01*
Y454000D01*
X188693D01*
Y458929D01*
D02*
G37*
G36*
X175000Y459000D02*
X169006D01*
X169082Y458223D01*
X169455Y456996D01*
X170059Y455865D01*
X170873Y454873D01*
X171865Y454060D01*
X172996Y453455D01*
X174223Y453083D01*
X175000Y453006D01*
Y459000D01*
D02*
G37*
G36*
X181994D02*
X176000D01*
Y453006D01*
X176777Y453083D01*
X178004Y453455D01*
X179135Y454060D01*
X180127Y454873D01*
X180940Y455865D01*
X181545Y456996D01*
X181918Y458223D01*
X181994Y459000D01*
D02*
G37*
G36*
X161994D02*
X156000D01*
Y453006D01*
X156776Y453083D01*
X158004Y453455D01*
X159135Y454060D01*
X160127Y454873D01*
X160941Y455865D01*
X161545Y456996D01*
X161918Y458223D01*
X161994Y459000D01*
D02*
G37*
G36*
X281868Y457000D02*
X273500D01*
Y448632D01*
X274740Y448754D01*
X276412Y449262D01*
X277954Y450086D01*
X279305Y451195D01*
X280414Y452546D01*
X281238Y454088D01*
X281746Y455760D01*
X281868Y457000D01*
D02*
G37*
G36*
X272500D02*
X264132D01*
X264254Y455760D01*
X264762Y454088D01*
X265586Y452546D01*
X266695Y451195D01*
X268046Y450086D01*
X269588Y449262D01*
X271260Y448754D01*
X272500Y448632D01*
Y457000D01*
D02*
G37*
G36*
X203972Y453000D02*
X201307D01*
Y448071D01*
X203972D01*
Y453000D01*
D02*
G37*
G36*
X222500Y448600D02*
X221400D01*
Y446500D01*
X222500D01*
Y448600D01*
D02*
G37*
G36*
X212925Y447772D02*
X211047D01*
Y445500D01*
X212925D01*
Y447772D01*
D02*
G37*
G36*
X210047D02*
X208169D01*
Y445500D01*
X210047D01*
Y447772D01*
D02*
G37*
G36*
X165500Y454177D02*
X164289Y454018D01*
X163161Y453550D01*
X162193Y452807D01*
X161450Y451839D01*
X160982Y450711D01*
X160823Y449500D01*
X160982Y448290D01*
X161450Y447161D01*
X162193Y446193D01*
X163161Y445450D01*
X164276Y444988D01*
Y436007D01*
X159906Y431637D01*
X159641Y431240D01*
X159548Y430772D01*
Y430743D01*
X154166D01*
Y422257D01*
X176039D01*
Y430320D01*
X177459D01*
X177928Y430413D01*
X178324Y430678D01*
X181923Y434276D01*
X189969D01*
Y433028D01*
X194125D01*
Y437972D01*
X189969D01*
Y436724D01*
X181966D01*
X181888Y436774D01*
X181614Y437223D01*
X181918Y438224D01*
X181994Y439000D01*
X175500D01*
X169006D01*
X169082Y438224D01*
X169455Y436996D01*
X170059Y435865D01*
X170873Y434873D01*
X171865Y434059D01*
X172996Y433455D01*
X173616Y433267D01*
X173541Y432767D01*
X170689D01*
X170221Y432674D01*
X169824Y432409D01*
X169559Y432012D01*
X169465Y431543D01*
Y430743D01*
X163127D01*
X162935Y431205D01*
X166365Y434635D01*
X166630Y435032D01*
X166724Y435500D01*
Y444988D01*
X167839Y445450D01*
X168807Y446193D01*
X169550Y447161D01*
X170012Y448277D01*
X175993D01*
X177737Y446532D01*
X178134Y446267D01*
X178602Y446174D01*
X186399D01*
Y443472D01*
X183969D01*
Y438528D01*
X188519D01*
Y440182D01*
X188675Y440415D01*
X189200Y440455D01*
X189481Y440168D01*
Y438528D01*
X194031D01*
Y439777D01*
X195969D01*
Y438528D01*
X196729D01*
Y437972D01*
X195875D01*
Y433028D01*
X200031D01*
Y437972D01*
X199176D01*
Y438528D01*
X200519D01*
Y443472D01*
X195969D01*
Y442224D01*
X194031D01*
Y443472D01*
X189481D01*
Y442096D01*
X189346Y441982D01*
X188846Y442215D01*
Y446174D01*
X192233D01*
Y444532D01*
X197767D01*
Y448071D01*
X200307D01*
Y453000D01*
X197642D01*
Y450263D01*
X192358D01*
Y453000D01*
X186028D01*
Y448621D01*
X179109D01*
X177365Y450365D01*
X176968Y450630D01*
X176500Y450724D01*
X170012D01*
X169550Y451839D01*
X168807Y452807D01*
X167839Y453550D01*
X166710Y454018D01*
X165500Y454177D01*
D02*
G37*
G36*
X266717Y445033D02*
Y442803D01*
X268946D01*
X268917Y443027D01*
X268638Y443701D01*
X268193Y444280D01*
X267614Y444724D01*
X266940Y445004D01*
X266717Y445033D01*
D02*
G37*
G36*
X206331Y443772D02*
X204256D01*
Y441500D01*
X206331D01*
Y443772D01*
D02*
G37*
G36*
X203256D02*
X201181D01*
Y441500D01*
X203256D01*
Y443772D01*
D02*
G37*
G36*
X156000Y445994D02*
Y440000D01*
X161994D01*
X161918Y440777D01*
X161545Y442004D01*
X160941Y443135D01*
X160127Y444127D01*
X159135Y444941D01*
X158004Y445545D01*
X156776Y445918D01*
X156000Y445994D01*
D02*
G37*
G36*
X176000D02*
Y440000D01*
X181994D01*
X181918Y440777D01*
X181545Y442004D01*
X180940Y443135D01*
X180127Y444127D01*
X179135Y444941D01*
X178004Y445545D01*
X176777Y445918D01*
X176000Y445994D01*
D02*
G37*
G36*
X175000Y445994D02*
X174223Y445918D01*
X172996Y445545D01*
X171865Y444941D01*
X170873Y444127D01*
X170059Y443135D01*
X169455Y442004D01*
X169082Y440777D01*
X169006Y440000D01*
X175000D01*
Y445994D01*
D02*
G37*
G36*
X206331Y440500D02*
X204256D01*
Y438228D01*
X206331D01*
Y440500D01*
D02*
G37*
G36*
X203256D02*
X201181D01*
Y438228D01*
X203256D01*
Y440500D01*
D02*
G37*
G36*
X218531Y447472D02*
X214375D01*
Y442528D01*
X215229D01*
Y441972D01*
X214375D01*
Y437028D01*
X218531D01*
Y441972D01*
X217676D01*
Y442528D01*
X218531D01*
Y447472D01*
D02*
G37*
G36*
X161994Y439000D02*
X156000D01*
Y433006D01*
X156776Y433082D01*
X158004Y433455D01*
X159135Y434059D01*
X160127Y434873D01*
X160941Y435865D01*
X161545Y436996D01*
X161918Y438224D01*
X161994Y439000D01*
D02*
G37*
G36*
X260000Y424831D02*
X257728D01*
Y422756D01*
X260000D01*
Y424831D01*
D02*
G37*
G36*
X251000Y421963D02*
Y420740D01*
X252223D01*
X252184Y420938D01*
X251789Y421529D01*
X251197Y421924D01*
X251000Y421963D01*
D02*
G37*
G36*
X243874Y422421D02*
X240520D01*
Y420740D01*
X243874D01*
Y422421D01*
D02*
G37*
G36*
X260000Y421756D02*
X257728D01*
Y419681D01*
X260000D01*
Y421756D01*
D02*
G37*
G36*
X237272Y421331D02*
X235000D01*
Y419256D01*
X237272D01*
Y421331D01*
D02*
G37*
G36*
X234000D02*
X231728D01*
Y419256D01*
X234000D01*
Y421331D01*
D02*
G37*
G36*
X243874Y419740D02*
X240520D01*
Y418059D01*
X243874D01*
Y419740D01*
D02*
G37*
G36*
X237272Y418256D02*
X235000D01*
Y416181D01*
X237272D01*
Y418256D01*
D02*
G37*
G36*
X234000D02*
X231728D01*
Y416181D01*
X234000D01*
Y418256D01*
D02*
G37*
G36*
X212925Y444500D02*
X210547D01*
X208169D01*
X208169Y442228D01*
X208469Y441853D01*
X208469Y441728D01*
Y439152D01*
X202032Y432716D01*
X201767Y432319D01*
X201674Y431850D01*
Y430743D01*
X183300D01*
Y422257D01*
X184351D01*
Y418458D01*
X184099Y418080D01*
X183984Y417500D01*
X184099Y416920D01*
X184351Y416542D01*
Y394082D01*
X178635Y388365D01*
X178370Y387968D01*
X178277Y387500D01*
Y373453D01*
X178370Y372985D01*
X178635Y372588D01*
X181776Y369446D01*
Y364921D01*
X178874D01*
Y362740D01*
Y360559D01*
X181776D01*
Y357141D01*
X174820D01*
Y353379D01*
X181928D01*
Y354036D01*
X194233D01*
X198635Y349635D01*
X199032Y349370D01*
X199469Y349283D01*
Y348028D01*
X204019D01*
Y352972D01*
X199469D01*
Y352914D01*
X199007Y352723D01*
X195605Y356125D01*
X195208Y356390D01*
X194740Y356483D01*
X184223D01*
Y357119D01*
X191180D01*
Y357903D01*
X199111D01*
X199469Y357544D01*
Y354528D01*
X204019D01*
Y359472D01*
X201003D01*
X200483Y359991D01*
X200086Y360256D01*
X199618Y360349D01*
X191180D01*
Y360881D01*
X188849D01*
Y361619D01*
X190365Y363135D01*
X190630Y363532D01*
X190724Y364000D01*
Y364654D01*
X190901Y364920D01*
X191016Y365500D01*
X190901Y366080D01*
X190572Y366572D01*
X190080Y366901D01*
X189500Y367017D01*
X188920Y366901D01*
X188428Y366572D01*
X188099Y366080D01*
X187984Y365500D01*
X188099Y364920D01*
X188277Y364654D01*
Y364507D01*
X186761Y362991D01*
X186496Y362594D01*
X186402Y362126D01*
Y360881D01*
X184223D01*
Y369953D01*
X184130Y370421D01*
X183865Y370818D01*
X180724Y373960D01*
Y386993D01*
X186440Y392710D01*
X186705Y393107D01*
X186798Y393575D01*
Y416766D01*
X186901Y416920D01*
X187016Y417500D01*
X186901Y418080D01*
X186798Y418234D01*
Y422257D01*
X188777D01*
Y403846D01*
X188599Y403580D01*
X188484Y403000D01*
X188599Y402420D01*
X188928Y401928D01*
X189420Y401599D01*
X190000Y401483D01*
X190580Y401599D01*
X191072Y401928D01*
X191401Y402420D01*
X191516Y403000D01*
X191401Y403580D01*
X191224Y403846D01*
Y422257D01*
X193013D01*
Y412764D01*
X193106Y412296D01*
X193371Y411899D01*
X194135Y411135D01*
X194532Y410870D01*
X195000Y410777D01*
X197154D01*
X197420Y410599D01*
X198000Y410484D01*
X198580Y410599D01*
X199072Y410928D01*
X199401Y411420D01*
X199516Y412000D01*
X199401Y412580D01*
X199072Y413072D01*
X198580Y413401D01*
X198000Y413517D01*
X197420Y413401D01*
X197154Y413224D01*
X195507D01*
X195460Y413271D01*
Y422257D01*
X213834D01*
Y430743D01*
X204121D01*
Y431344D01*
X209806Y437028D01*
X212625D01*
X212625Y441853D01*
X212925Y442228D01*
X212925Y442347D01*
Y444500D01*
D02*
G37*
G36*
X236972Y415519D02*
X232028D01*
Y410969D01*
X236972D01*
Y411536D01*
X240820D01*
Y410879D01*
X243150D01*
Y409158D01*
X243099Y409080D01*
X242984Y408500D01*
X243099Y407920D01*
X243231Y407722D01*
X243244Y407658D01*
X243277Y407609D01*
Y407000D01*
X243370Y406532D01*
X243635Y406135D01*
X245564Y404206D01*
X245961Y403940D01*
X246429Y403847D01*
X261454D01*
Y400828D01*
X269547D01*
Y409314D01*
X261454D01*
Y406294D01*
X246936D01*
X245724Y407507D01*
Y407654D01*
X245901Y407920D01*
X246017Y408500D01*
X245901Y409080D01*
X245598Y409535D01*
Y410879D01*
X247928D01*
Y414641D01*
X240820D01*
Y413983D01*
X236972D01*
Y415519D01*
D02*
G37*
G36*
X230756Y400626D02*
X225827D01*
Y398453D01*
X230756D01*
Y400626D01*
D02*
G37*
G36*
X224827D02*
X219898D01*
Y398453D01*
X224827D01*
Y400626D01*
D02*
G37*
G36*
X230756Y397453D02*
X225827D01*
Y395280D01*
X230756D01*
Y397453D01*
D02*
G37*
G36*
X224827D02*
X219898D01*
Y395280D01*
X224827D01*
Y397453D01*
D02*
G37*
G36*
X273843Y385076D02*
X273014D01*
Y381937D01*
X277416D01*
X277358Y382379D01*
X276994Y383257D01*
X276416Y384010D01*
X275662Y384589D01*
X274784Y384952D01*
X273843Y385076D01*
D02*
G37*
G36*
X269547Y393172D02*
X261454D01*
Y390153D01*
X260429D01*
X259961Y390059D01*
X259564Y389794D01*
X246588Y376818D01*
X246322Y376421D01*
X246229Y375953D01*
Y375472D01*
X245375D01*
Y370528D01*
X249531D01*
Y375472D01*
X249355D01*
X249164Y375934D01*
X260936Y387706D01*
X261454D01*
Y384686D01*
X268670D01*
X268840Y384186D01*
X268612Y384010D01*
X268033Y383257D01*
X267670Y382379D01*
X267612Y381937D01*
X272014D01*
Y385076D01*
X271185D01*
X270243Y384952D01*
X270046Y384871D01*
X269547Y385205D01*
Y393172D01*
D02*
G37*
G36*
X214134Y385043D02*
X212059D01*
Y381000D01*
X214134D01*
Y385043D01*
D02*
G37*
G36*
X155941D02*
X153866D01*
Y381000D01*
X155941D01*
Y385043D01*
D02*
G37*
G36*
X277416Y380937D02*
X273014D01*
Y377798D01*
X273843D01*
X274784Y377922D01*
X275662Y378285D01*
X276416Y378864D01*
X276994Y379617D01*
X277358Y380495D01*
X277416Y380937D01*
D02*
G37*
G36*
X272014D02*
X267612D01*
X267670Y380495D01*
X268033Y379617D01*
X268612Y378864D01*
X269365Y378285D01*
X270243Y377922D01*
X271185Y377798D01*
X272014D01*
Y380937D01*
D02*
G37*
G36*
X214134Y380000D02*
X212059D01*
Y375957D01*
X214134D01*
Y380000D01*
D02*
G37*
G36*
X159016Y385043D02*
X156941D01*
Y380500D01*
Y375957D01*
X159016D01*
Y376257D01*
X176039D01*
Y384743D01*
X159016D01*
Y385043D01*
D02*
G37*
G36*
X155941Y380000D02*
X153866D01*
Y375957D01*
X155941D01*
Y380000D01*
D02*
G37*
G36*
X261274Y376456D02*
X260986D01*
Y374260D01*
X263904D01*
X263878Y374458D01*
X263609Y375108D01*
X263180Y375666D01*
X262622Y376095D01*
X261971Y376364D01*
X261274Y376456D01*
D02*
G37*
G36*
X259986D02*
X259699D01*
X259001Y376364D01*
X258351Y376095D01*
X257792Y375666D01*
X257364Y375108D01*
X257094Y374458D01*
X257068Y374260D01*
X259986D01*
Y376456D01*
D02*
G37*
G36*
X263904Y373260D02*
X260486D01*
X257068D01*
X257094Y373062D01*
X257364Y372412D01*
X257792Y371853D01*
X257813Y371837D01*
Y370618D01*
X261470D01*
X265128D01*
Y371906D01*
X263786D01*
X263564Y372354D01*
X263609Y372412D01*
X263878Y373062D01*
X263904Y373260D01*
D02*
G37*
G36*
X265128Y369618D02*
X261470D01*
X257813D01*
Y368331D01*
X258113D01*
Y366224D01*
X254507D01*
X252865Y367865D01*
X252468Y368130D01*
X252000Y368223D01*
X249531D01*
Y369472D01*
X245375D01*
Y364528D01*
X249531D01*
Y365776D01*
X251493D01*
X253105Y364164D01*
X253095Y364038D01*
X252939Y363665D01*
X249531D01*
Y363972D01*
X245375D01*
Y359028D01*
X249531D01*
Y361217D01*
X254321D01*
X254477Y360844D01*
X254487Y360718D01*
X249493Y355724D01*
X241346D01*
X241080Y355901D01*
X240500Y356016D01*
X239920Y355901D01*
X239428Y355572D01*
X239099Y355080D01*
X238983Y354500D01*
X239099Y353920D01*
X239428Y353428D01*
X239920Y353099D01*
X240500Y352983D01*
X241080Y353099D01*
X241346Y353276D01*
X250000D01*
X250468Y353370D01*
X250865Y353635D01*
X255889Y358659D01*
X257638D01*
X257807Y358158D01*
X257792Y358147D01*
X257742Y358082D01*
X257364Y357588D01*
X257094Y356938D01*
X257068Y356740D01*
X260486D01*
X263904D01*
X263878Y356938D01*
X263609Y357588D01*
X263374Y357895D01*
X263620Y358395D01*
X264828D01*
Y360954D01*
Y363513D01*
Y368331D01*
X265128D01*
Y369618D01*
D02*
G37*
G36*
X209425Y367000D02*
X207547D01*
Y364728D01*
X209425D01*
Y367000D01*
D02*
G37*
G36*
X177874Y364921D02*
X174520D01*
Y363240D01*
X177874D01*
Y364921D01*
D02*
G37*
G36*
Y362240D02*
X174520D01*
Y360559D01*
X177874D01*
Y362240D01*
D02*
G37*
G36*
X228000Y380016D02*
X227420Y379901D01*
X226928Y379572D01*
X226599Y379080D01*
X226483Y378500D01*
X226599Y377920D01*
X226777Y377654D01*
Y365677D01*
X226870Y365209D01*
X227135Y364812D01*
X229462Y362485D01*
X229462Y359324D01*
X229003Y359224D01*
X228704D01*
X226538Y361389D01*
Y364550D01*
X225422D01*
X225390Y364708D01*
X225125Y365105D01*
X224724Y365507D01*
Y369154D01*
X224901Y369420D01*
X225016Y370000D01*
X224901Y370580D01*
X224572Y371072D01*
X224080Y371401D01*
X223500Y371516D01*
X222920Y371401D01*
X222428Y371072D01*
X222099Y370580D01*
X221984Y370000D01*
X222099Y369420D01*
X222276Y369154D01*
Y365000D01*
X222291Y364928D01*
X221981Y364550D01*
X221981D01*
Y359324D01*
X225143D01*
X226990Y357476D01*
X226783Y356976D01*
X225421D01*
Y354563D01*
X228000D01*
X230579D01*
Y356776D01*
X238047D01*
X238515Y356870D01*
X238912Y357135D01*
X240806Y359028D01*
X243625D01*
Y363972D01*
X239469D01*
Y361152D01*
X237541Y359224D01*
X234477D01*
X234019Y359324D01*
X234019Y359723D01*
Y362485D01*
X237310Y365776D01*
X239469D01*
Y364528D01*
X243625D01*
Y369472D01*
X239469D01*
Y368223D01*
X236803D01*
X236335Y368130D01*
X235938Y367865D01*
X232623Y364550D01*
X230857D01*
X229223Y366184D01*
Y377654D01*
X229401Y377920D01*
X229517Y378500D01*
X229401Y379080D01*
X229072Y379572D01*
X228580Y379901D01*
X228000Y380016D01*
D02*
G37*
G36*
X209831Y359772D02*
X207756D01*
Y357500D01*
X209831D01*
Y359772D01*
D02*
G37*
G36*
X206756D02*
X204681D01*
Y357500D01*
X206756D01*
Y359772D01*
D02*
G37*
G36*
X209831Y356500D02*
X207756D01*
Y354228D01*
X209831D01*
Y356500D01*
D02*
G37*
G36*
X206756D02*
X204681D01*
Y354228D01*
X206756D01*
Y356500D01*
D02*
G37*
G36*
X263904Y355740D02*
X260986D01*
Y353544D01*
X261274D01*
X261971Y353636D01*
X262622Y353905D01*
X263180Y354334D01*
X263609Y354892D01*
X263878Y355542D01*
X263904Y355740D01*
D02*
G37*
G36*
X259986D02*
X257068D01*
X257094Y355542D01*
X257364Y354892D01*
X257792Y354334D01*
X258351Y353905D01*
X259001Y353636D01*
X259699Y353544D01*
X259986D01*
Y355740D01*
D02*
G37*
G36*
X162500Y361868D02*
Y353500D01*
X170868D01*
X170746Y354740D01*
X170238Y356412D01*
X169414Y357954D01*
X168305Y359305D01*
X166954Y360414D01*
X165412Y361238D01*
X163740Y361746D01*
X162500Y361868D01*
D02*
G37*
G36*
X161500D02*
X160260Y361746D01*
X158588Y361238D01*
X157046Y360414D01*
X155695Y359305D01*
X154586Y357954D01*
X153762Y356412D01*
X153254Y354740D01*
X153132Y353500D01*
X161500D01*
Y361868D01*
D02*
G37*
G36*
X230579Y353563D02*
X228500D01*
Y351150D01*
X230579D01*
Y353563D01*
D02*
G37*
G36*
X227500D02*
X225421D01*
Y351150D01*
X227500D01*
Y353563D01*
D02*
G37*
G36*
X209831Y353272D02*
X207756D01*
Y351000D01*
X209831D01*
Y353272D01*
D02*
G37*
G36*
X206756D02*
X204681D01*
Y351000D01*
X206756D01*
Y353272D01*
D02*
G37*
G36*
X273843Y352202D02*
X273014D01*
Y349063D01*
X277416D01*
X277358Y349505D01*
X276994Y350383D01*
X276416Y351136D01*
X275662Y351715D01*
X274784Y352078D01*
X273843Y352202D01*
D02*
G37*
G36*
X272014D02*
X271185D01*
X270243Y352078D01*
X269365Y351715D01*
X268612Y351136D01*
X268033Y350383D01*
X267670Y349505D01*
X267612Y349063D01*
X272014D01*
Y352202D01*
D02*
G37*
G36*
X209831Y350000D02*
X207756D01*
Y347728D01*
X209831D01*
Y350000D01*
D02*
G37*
G36*
X206756D02*
X204681D01*
Y347728D01*
X206756D01*
Y350000D01*
D02*
G37*
%LPD*%
G36*
X258277Y451119D02*
Y444905D01*
X257972Y444531D01*
X256723D01*
Y445500D01*
X256630Y445968D01*
X256365Y446365D01*
X255865Y446865D01*
X255468Y447130D01*
X255000Y447224D01*
X246000D01*
X245532Y447130D01*
X245243Y446938D01*
X244863Y447069D01*
X244743Y447159D01*
Y447605D01*
X240262D01*
X240012Y448105D01*
X240140Y448277D01*
X242500D01*
X242968Y448370D01*
X243365Y448635D01*
X245199Y450469D01*
X249472D01*
Y451324D01*
X258072D01*
X258277Y451119D01*
D02*
G37*
G36*
X246020Y436457D02*
X247405D01*
X247728Y436090D01*
Y434169D01*
X250000D01*
Y436744D01*
X251000D01*
Y434169D01*
X253272D01*
Y434469D01*
X256801D01*
X258776Y432493D01*
Y431507D01*
X253993Y426723D01*
X247507D01*
X244798Y429432D01*
Y435980D01*
X245020Y436268D01*
Y438047D01*
X246020D01*
Y436457D01*
D02*
G37*
G36*
X227500Y432400D02*
X228600D01*
Y432700D01*
X229543D01*
Y427500D01*
Y425273D01*
X226724Y422454D01*
X226223Y422661D01*
Y432400D01*
X226500D01*
Y435000D01*
X227500D01*
Y432400D01*
D02*
G37*
G36*
X214776Y409339D02*
Y392723D01*
X211500D01*
X211032Y392630D01*
X210635Y392365D01*
X206363Y388094D01*
X206098Y387697D01*
X206005Y387228D01*
Y384743D01*
X191129D01*
Y386399D01*
X214277Y409546D01*
X214776Y409339D01*
D02*
G37*
%LPC*%
G36*
X251000Y432223D02*
Y431000D01*
X252223D01*
X252184Y431197D01*
X251789Y431789D01*
X251197Y432184D01*
X251000Y432223D01*
D02*
G37*
G36*
X250000D02*
X249803Y432184D01*
X249211Y431789D01*
X248816Y431197D01*
X248777Y431000D01*
X250000D01*
Y432223D01*
D02*
G37*
G36*
X252223Y430000D02*
X251000D01*
Y428777D01*
X251197Y428816D01*
X251789Y429211D01*
X252184Y429803D01*
X252223Y430000D01*
D02*
G37*
G36*
X250000D02*
X248777D01*
X248816Y429803D01*
X249211Y429211D01*
X249803Y428816D01*
X250000Y428777D01*
Y430000D01*
D02*
G37*
%LPD*%
D10*
X235480Y443953D02*
D03*
Y441984D02*
D03*
Y440016D02*
D03*
Y438047D02*
D03*
X245520D02*
D03*
Y440016D02*
D03*
Y441984D02*
D03*
Y443953D02*
D03*
D11*
X237547Y435980D02*
D03*
X239516D02*
D03*
X241484D02*
D03*
X243453D02*
D03*
Y446020D02*
D03*
X241484D02*
D03*
X239516D02*
D03*
X237547D02*
D03*
D12*
X250500Y436744D02*
D03*
Y442256D02*
D03*
X255500Y436744D02*
D03*
Y442256D02*
D03*
X260500Y416744D02*
D03*
Y422256D02*
D03*
X234500Y413244D02*
D03*
Y418756D02*
D03*
D13*
X211559Y426500D02*
D03*
X207228D02*
D03*
X202898D02*
D03*
X198567D02*
D03*
X194236D02*
D03*
X189906D02*
D03*
X185575D02*
D03*
X173764D02*
D03*
X169433D02*
D03*
X165102D02*
D03*
X160772D02*
D03*
X156441D02*
D03*
Y380500D02*
D03*
X160772D02*
D03*
X165102D02*
D03*
X169433D02*
D03*
X173764D02*
D03*
X185575D02*
D03*
X189906D02*
D03*
X194236D02*
D03*
X198567D02*
D03*
X202898D02*
D03*
X207228D02*
D03*
X211559D02*
D03*
D14*
X195000Y447398D02*
D03*
D15*
X200807Y453500D02*
D03*
X189193D02*
D03*
D16*
X225327Y392047D02*
D03*
Y397953D02*
D03*
D17*
X261470Y359882D02*
D03*
Y362441D02*
D03*
Y365000D02*
D03*
Y367559D02*
D03*
Y370118D02*
D03*
D18*
X216453Y439500D02*
D03*
X210547D02*
D03*
Y445000D02*
D03*
X216453D02*
D03*
X197953Y435500D02*
D03*
X192047D02*
D03*
X247453Y361500D02*
D03*
X241547D02*
D03*
X247453Y367000D02*
D03*
X241547D02*
D03*
X247453Y373000D02*
D03*
X241547D02*
D03*
X207047Y367500D02*
D03*
X212953D02*
D03*
Y372500D02*
D03*
X207047D02*
D03*
D19*
X198244Y441000D02*
D03*
X203756D02*
D03*
X201744Y350500D02*
D03*
X207256D02*
D03*
X201744Y357000D02*
D03*
X207256D02*
D03*
X191756Y441000D02*
D03*
X186244D02*
D03*
D20*
X228000Y354063D02*
D03*
X224260Y361937D02*
D03*
X231740D02*
D03*
D21*
X265500Y405071D02*
D03*
Y388929D02*
D03*
D22*
X187626Y359000D02*
D03*
X178374Y355260D02*
D03*
Y362740D02*
D03*
X253626Y416500D02*
D03*
X244374Y412760D02*
D03*
Y420240D02*
D03*
D23*
X226000Y440500D02*
D03*
D24*
X229000Y435000D02*
D03*
X227000D02*
D03*
X225000D02*
D03*
X223000D02*
D03*
Y446000D02*
D03*
X225000D02*
D03*
X227000D02*
D03*
X229000D02*
D03*
D25*
X247000Y458453D02*
D03*
Y452547D02*
D03*
X239500D02*
D03*
Y458453D02*
D03*
D26*
X232000Y447500D02*
Y452547D01*
Y447000D02*
Y447500D01*
X242500Y440000D02*
Y441000D01*
X230767Y427500D02*
Y435000D01*
Y424767D02*
Y427500D01*
X234500D01*
X260486Y373760D02*
X264837D01*
X261470Y370118D02*
Y372776D01*
X250500Y430500D02*
Y436744D01*
X197000Y367500D02*
X198567Y369067D01*
Y380500D01*
X191500Y370000D02*
X194236Y372736D01*
Y380500D01*
Y412764D02*
Y426500D01*
Y412764D02*
X195000Y412000D01*
X198000D01*
X223500Y365000D02*
Y370000D01*
Y365000D02*
X224260Y364240D01*
Y361937D02*
Y364240D01*
X190000Y403000D02*
Y426406D01*
X228000Y365677D02*
Y378500D01*
Y365677D02*
X231740Y361937D01*
X236803Y367000D01*
X241547D01*
X228197Y358000D02*
X238047D01*
X241547Y361500D01*
X224260Y361937D02*
X228197Y358000D01*
X202898Y365102D02*
Y380500D01*
Y365102D02*
X206000Y362000D01*
X213500D01*
X219500Y368000D01*
Y383393D01*
X225327Y389220D01*
X207047Y367500D02*
X209500D01*
X210075Y368075D01*
Y374893D01*
X211559Y376377D01*
Y380500D01*
X212953Y367500D02*
Y372500D01*
X211559Y380500D02*
X218500Y387441D01*
Y396000D01*
X220453Y397953D01*
X225327D01*
Y411827D01*
X232256Y418756D01*
X234500D01*
X207228Y380500D02*
Y387228D01*
X211500Y391500D01*
X216000D01*
Y410000D01*
X234500Y418756D02*
X235984Y420240D01*
X244374D01*
X234500Y413244D02*
X234984Y412760D01*
X244374D01*
Y420240D02*
X254240D01*
X256256Y422256D01*
X260500D01*
X253870Y416744D02*
X260500D01*
X263744D01*
X265697Y418697D01*
X267217D01*
X266520Y418000D02*
X267217Y418697D01*
X265217Y432961D02*
X266717D01*
X265118Y437882D02*
X266717D01*
X185575Y380500D02*
X186000Y380925D01*
Y386000D01*
X223000Y423000D01*
Y435000D01*
X189906Y380500D02*
Y386906D01*
X225000Y422000D01*
X225327Y389220D02*
Y392047D01*
Y389220D02*
X241547Y373000D01*
X207256Y357000D02*
X210193Y354063D01*
X228000D01*
X232000Y349500D02*
X267226D01*
X228000Y353500D02*
Y354063D01*
Y353500D02*
X232000Y349500D01*
X250000Y354500D02*
X255382Y359882D01*
X240500Y354500D02*
X250000D01*
X187626Y359000D02*
Y362126D01*
X189500Y364000D01*
Y365500D01*
X255382Y359882D02*
X261470D01*
X247453Y367000D02*
X252000D01*
X254000Y365000D01*
X261470D01*
X248394Y362441D02*
X261470D01*
X260486Y356240D02*
X267226Y349500D01*
X268563D01*
X269500Y348563D01*
X264837Y373760D02*
X272514Y381437D01*
X207256Y350544D02*
Y357000D01*
X196000Y345000D02*
X201712D01*
X191126Y349874D02*
X196000Y345000D01*
X168626Y349874D02*
X191126D01*
X182260Y355260D02*
X194740D01*
X178374D02*
X182260D01*
X194740D02*
X199500Y350500D01*
X202244D01*
X162000Y353000D02*
X171740Y362740D01*
X178374D01*
X175547Y365567D02*
X178374Y362740D01*
X175547Y365567D02*
Y371500D01*
X161000D02*
X175547D01*
X156441Y376059D02*
X161000Y371500D01*
X156441Y376059D02*
Y380500D01*
X182260Y355260D02*
X183000Y356000D01*
Y369953D01*
X179500Y373453D02*
X183000Y369953D01*
X179500Y373453D02*
Y387500D01*
X185575Y393575D01*
X162000Y353000D02*
X165500D01*
X168626Y349874D01*
X199618Y359126D02*
X201744Y357000D01*
X190000Y359126D02*
X199618D01*
X226000Y440500D02*
Y442700D01*
X227000Y443700D01*
Y446000D01*
X225000D02*
X227000D01*
X223000D02*
X225000D01*
X232433Y435000D02*
X235480Y438047D01*
X216000Y410000D02*
X230767Y424767D01*
X229100Y435000D02*
X230767D01*
X232433D01*
X225000Y422000D02*
Y435000D01*
X226000Y438321D02*
Y440500D01*
X227000Y435000D02*
Y437321D01*
X226000Y438321D02*
X227000Y437321D01*
X233484Y441984D02*
X235480D01*
X230767Y439267D02*
X233484Y441984D01*
X230767Y435000D02*
Y439267D01*
X231000Y446000D02*
X232000Y447000D01*
X227000Y446000D02*
X229000D01*
X231000D01*
X232000Y452547D02*
X233594D01*
X239500Y458453D01*
X247000D01*
X238047Y452547D02*
X239500D01*
X235457Y449957D02*
X238047Y452547D01*
X235457Y444489D02*
Y449957D01*
Y444489D02*
X235480D01*
X245547Y452547D02*
X247000D01*
X242500Y449500D02*
X245547Y452547D01*
X239399Y449500D02*
X242500D01*
X237547Y446020D02*
Y447468D01*
X237457Y447558D02*
X239399Y449500D01*
X239500Y452547D02*
Y454000D01*
X240925Y455425D01*
X263047Y458453D02*
X265217Y456283D01*
X247000Y458453D02*
X263047D01*
X249756Y442256D02*
X250500D01*
X247516Y440016D02*
X249756Y442256D01*
X247149Y440016D02*
X247516D01*
X245520Y440016D02*
X247516D01*
X245520Y437480D02*
Y438047D01*
Y437480D02*
X246256Y436744D01*
X250500D01*
X237109Y441984D02*
X238625Y443500D01*
X235480Y441984D02*
X237109D01*
X243484D02*
X245520D01*
X242500Y441000D02*
X243484Y441984D01*
X245520Y443953D02*
Y445480D01*
X240925Y455425D02*
X259425D01*
X261626Y453224D01*
Y441374D02*
Y453224D01*
Y441374D02*
X265118Y437882D01*
X247000Y452547D02*
X258579D01*
X259500Y451626D01*
Y438677D02*
Y451626D01*
Y438677D02*
X265217Y432961D01*
X255500Y442256D02*
Y445500D01*
X255000Y446000D02*
X255500Y445500D01*
X246000Y446000D02*
X255000D01*
X245520Y445480D02*
X246020Y445980D01*
X255500Y436744D02*
X256256D01*
X260000Y433000D01*
Y431000D02*
Y433000D01*
X254500Y425500D02*
X260000Y431000D01*
X247000Y425500D02*
X254500D01*
X243575Y428925D02*
X247000Y425500D01*
X243575Y428925D02*
Y435980D01*
X165500Y435500D02*
Y449500D01*
X160772Y430772D02*
X165500Y435500D01*
X160772Y426500D02*
Y430772D01*
X176500Y449500D02*
X178602Y447398D01*
X165500Y449500D02*
X176500D01*
X175500Y459500D02*
X185000D01*
X189193Y455307D01*
X199000D01*
X195000Y447398D02*
X195122Y447275D01*
X169433Y426500D02*
X170689Y427756D01*
Y431543D01*
X177459D01*
X181416Y435500D01*
X192047D01*
X202898Y431850D02*
X210547Y439500D01*
X202898Y426500D02*
Y431850D01*
X216453Y439500D02*
Y445000D01*
X203756Y441000D02*
X207256Y444500D01*
X210047D01*
X197953Y435500D02*
Y440709D01*
X203756Y441000D02*
Y450551D01*
X190378Y441000D02*
X198244D01*
X187622Y441000D02*
Y447275D01*
X178602Y447398D02*
X195000D01*
X223000Y446000D02*
Y451000D01*
X203307D02*
X223000D01*
X203307D02*
X203756Y450551D01*
X207228Y373728D02*
Y380500D01*
X243434Y446001D02*
X243453Y446020D01*
X243434Y444338D02*
Y446001D01*
X242596Y443500D02*
X243434Y444338D01*
X238625Y443500D02*
X242596D01*
X246429Y405071D02*
X265500D01*
X244500Y407000D02*
Y408500D01*
Y407000D02*
X246429Y405071D01*
X244374Y408126D02*
Y412760D01*
X260429Y388929D02*
X265500D01*
X247453Y375953D02*
X260429Y388929D01*
X247453Y373000D02*
Y375953D01*
X266217Y442303D02*
Y450717D01*
X271783Y456283D01*
X265217D02*
X271783D01*
X201712Y345000D02*
X207256Y350544D01*
X185575Y393575D02*
Y426500D01*
D27*
X273000Y457500D02*
D03*
X162000Y353000D02*
D03*
D28*
X165500Y449500D02*
D03*
D29*
X155500Y439500D02*
D03*
X175500D02*
D03*
Y459500D02*
D03*
X155500D02*
D03*
D30*
X266217Y442303D02*
D03*
Y422618D02*
D03*
Y427539D02*
D03*
Y432461D02*
D03*
Y437382D02*
D03*
D31*
Y417697D02*
D03*
D32*
X260486Y356240D02*
D03*
Y373760D02*
D03*
D33*
X272514Y381437D02*
D03*
Y348563D02*
D03*
D34*
X232000Y447500D02*
D03*
X242500Y440000D02*
D03*
X244500Y408500D02*
D03*
X234500Y427500D02*
D03*
X250500Y420240D02*
D03*
Y430500D02*
D03*
X197000Y367500D02*
D03*
X191500Y370000D02*
D03*
X198000Y412000D02*
D03*
X223500Y370000D02*
D03*
X190000Y403000D02*
D03*
X228000Y378500D02*
D03*
X240500Y354500D02*
D03*
X189500Y365500D02*
D03*
X185500Y417500D02*
D03*
M02*
