G04 Layer_Color=16711935*
%FSLAX25Y25*%
%MOIN*%
G70*
G01*
G75*
%ADD60C,0.16548*%
%ADD61C,0.08674*%
%ADD62C,0.11824*%
%ADD63C,0.04343*%
%ADD64R,0.04343X0.04343*%
%ADD65O,0.05721X0.04147*%
%ADD66O,0.08674X0.06017*%
%ADD67C,0.02375*%
D60*
X273000Y457500D02*
D03*
X162000Y353000D02*
D03*
D61*
X165500Y449500D02*
D03*
D62*
X155500Y439500D02*
D03*
X175500D02*
D03*
Y459500D02*
D03*
X155500D02*
D03*
D63*
X266217Y442303D02*
D03*
Y422618D02*
D03*
Y427539D02*
D03*
Y432461D02*
D03*
Y437382D02*
D03*
D64*
Y417697D02*
D03*
D65*
X260486Y356240D02*
D03*
Y373760D02*
D03*
D66*
X272514Y381437D02*
D03*
Y348563D02*
D03*
D67*
X232000Y447500D02*
D03*
X242500Y440000D02*
D03*
X244500Y408500D02*
D03*
X234500Y427500D02*
D03*
X250500Y420240D02*
D03*
Y430500D02*
D03*
X197000Y367500D02*
D03*
X191500Y370000D02*
D03*
X198000Y412000D02*
D03*
X223500Y370000D02*
D03*
X190000Y403000D02*
D03*
X228000Y378500D02*
D03*
X240500Y354500D02*
D03*
X189500Y365500D02*
D03*
X185500Y417500D02*
D03*
M02*
