G04 Layer_Physical_Order=2*
G04 Layer_Color=16711680*
%FSLAX25Y25*%
%MOIN*%
G70*
G01*
G75*
%ADD26C,0.01000*%
%ADD27C,0.15748*%
%ADD28C,0.07874*%
%ADD29C,0.11024*%
%ADD30C,0.03543*%
%ADD31R,0.03543X0.03543*%
%ADD32O,0.04921X0.03347*%
%ADD33O,0.07874X0.05217*%
%ADD34C,0.01575*%
G36*
X282500Y345000D02*
X282000Y344500D01*
X281500Y345000D01*
X275912D01*
X275778Y345500D01*
X276416Y345990D01*
X276994Y346743D01*
X277358Y347621D01*
X277416Y348063D01*
X272514D01*
Y348563D01*
D01*
Y348063D01*
X267612D01*
X267670Y347621D01*
X268033Y346743D01*
X268612Y345990D01*
X269250Y345500D01*
X269115Y345000D01*
X166887D01*
X166765Y345485D01*
X166954Y345586D01*
X168305Y346695D01*
X169414Y348046D01*
X170238Y349588D01*
X170746Y351260D01*
X170868Y352500D01*
X153132D01*
X153254Y351260D01*
X153762Y349588D01*
X154586Y348046D01*
X155695Y346695D01*
X157046Y345586D01*
X157235Y345485D01*
X157113Y345000D01*
X150000D01*
Y435149D01*
X150500Y435328D01*
X150873Y434873D01*
X151865Y434059D01*
X152996Y433455D01*
X154223Y433082D01*
X155000Y433006D01*
Y439500D01*
Y445994D01*
X154223Y445918D01*
X152996Y445545D01*
X151865Y444941D01*
X150873Y444127D01*
X150500Y443672D01*
X150000Y443851D01*
Y455149D01*
X150500Y455328D01*
X150873Y454873D01*
X151865Y454060D01*
X152996Y453455D01*
X154223Y453083D01*
X155000Y453006D01*
Y459500D01*
X155500D01*
Y460000D01*
X161994D01*
X161918Y460777D01*
X161545Y462004D01*
X160941Y463135D01*
X160127Y464127D01*
X159672Y464500D01*
X159851Y465000D01*
X171149D01*
X171328Y464500D01*
X170873Y464127D01*
X170059Y463135D01*
X169455Y462004D01*
X169082Y460777D01*
X169006Y460000D01*
X175500D01*
X181994D01*
X181918Y460777D01*
X181545Y462004D01*
X180940Y463135D01*
X180127Y464127D01*
X179672Y464500D01*
X179851Y465000D01*
X267362D01*
X267541Y464500D01*
X266695Y463805D01*
X265586Y462454D01*
X264762Y460912D01*
X264254Y459240D01*
X264132Y458000D01*
X281868D01*
X281746Y459240D01*
X281238Y460912D01*
X280414Y462454D01*
X279305Y463805D01*
X278459Y464500D01*
X278638Y465000D01*
X282500D01*
Y345000D01*
D02*
G37*
%LPC*%
G36*
X175000Y459000D02*
X169006D01*
X169082Y458223D01*
X169455Y456996D01*
X170059Y455865D01*
X170873Y454873D01*
X171865Y454060D01*
X172996Y453455D01*
X174223Y453083D01*
X175000Y453006D01*
Y459000D01*
D02*
G37*
G36*
X181994D02*
X176000D01*
Y453006D01*
X176777Y453083D01*
X178004Y453455D01*
X179135Y454060D01*
X180127Y454873D01*
X180940Y455865D01*
X181545Y456996D01*
X181918Y458223D01*
X181994Y459000D01*
D02*
G37*
G36*
X161994D02*
X156000D01*
Y453006D01*
X156776Y453083D01*
X158004Y453455D01*
X159135Y454060D01*
X160127Y454873D01*
X160941Y455865D01*
X161545Y456996D01*
X161918Y458223D01*
X161994Y459000D01*
D02*
G37*
G36*
X281868Y457000D02*
X273500D01*
Y448632D01*
X274740Y448754D01*
X276412Y449262D01*
X277954Y450086D01*
X279305Y451195D01*
X280414Y452546D01*
X281238Y454088D01*
X281746Y455760D01*
X281868Y457000D01*
D02*
G37*
G36*
X272500D02*
X264132D01*
X264254Y455760D01*
X264762Y454088D01*
X265586Y452546D01*
X266695Y451195D01*
X268046Y450086D01*
X269588Y449262D01*
X271260Y448754D01*
X272500Y448632D01*
Y457000D01*
D02*
G37*
G36*
X233723Y447000D02*
X232500D01*
Y445777D01*
X232697Y445816D01*
X233289Y446211D01*
X233684Y446803D01*
X233723Y447000D01*
D02*
G37*
G36*
X231500D02*
X230277D01*
X230316Y446803D01*
X230711Y446211D01*
X231303Y445816D01*
X231500Y445777D01*
Y447000D01*
D02*
G37*
G36*
X165500Y454177D02*
X164289Y454018D01*
X163161Y453550D01*
X162193Y452807D01*
X161450Y451839D01*
X160982Y450711D01*
X160823Y449500D01*
X160982Y448290D01*
X161450Y447161D01*
X162193Y446193D01*
X163161Y445450D01*
X164289Y444982D01*
X165500Y444823D01*
X166710Y444982D01*
X167839Y445450D01*
X168807Y446193D01*
X169550Y447161D01*
X170018Y448290D01*
X170177Y449500D01*
X170018Y450711D01*
X169550Y451839D01*
X168807Y452807D01*
X167839Y453550D01*
X166710Y454018D01*
X165500Y454177D01*
D02*
G37*
G36*
X266717Y445033D02*
Y442803D01*
X268946D01*
X268917Y443027D01*
X268638Y443701D01*
X268193Y444280D01*
X267614Y444724D01*
X266940Y445004D01*
X266717Y445033D01*
D02*
G37*
G36*
X265717D02*
X265493Y445004D01*
X264819Y444724D01*
X264240Y444280D01*
X263796Y443701D01*
X263516Y443027D01*
X263487Y442803D01*
X265717D01*
Y445033D01*
D02*
G37*
G36*
X243000Y441723D02*
Y440500D01*
X244223D01*
X244184Y440697D01*
X243789Y441289D01*
X243197Y441684D01*
X243000Y441723D01*
D02*
G37*
G36*
X242000D02*
X241803Y441684D01*
X241211Y441289D01*
X240816Y440697D01*
X240777Y440500D01*
X242000D01*
Y441723D01*
D02*
G37*
G36*
X156000Y445994D02*
Y440000D01*
X161994D01*
X161918Y440777D01*
X161545Y442004D01*
X160941Y443135D01*
X160127Y444127D01*
X159135Y444941D01*
X158004Y445545D01*
X156776Y445918D01*
X156000Y445994D01*
D02*
G37*
G36*
X176000D02*
Y440000D01*
X181994D01*
X181918Y440777D01*
X181545Y442004D01*
X180940Y443135D01*
X180127Y444127D01*
X179135Y444941D01*
X178004Y445545D01*
X176777Y445918D01*
X176000Y445994D01*
D02*
G37*
G36*
X175000Y445994D02*
X174223Y445918D01*
X172996Y445545D01*
X171865Y444941D01*
X170873Y444127D01*
X170059Y443135D01*
X169455Y442004D01*
X169082Y440777D01*
X169006Y440000D01*
X175000D01*
Y445994D01*
D02*
G37*
G36*
X244223Y439500D02*
X243000D01*
Y438277D01*
X243197Y438316D01*
X243789Y438711D01*
X244184Y439303D01*
X244223Y439500D01*
D02*
G37*
G36*
X242000D02*
X240777D01*
X240816Y439303D01*
X241211Y438711D01*
X241803Y438316D01*
X242000Y438277D01*
Y439500D01*
D02*
G37*
G36*
X175000Y439000D02*
X169006D01*
X169082Y438224D01*
X169455Y436996D01*
X170059Y435865D01*
X170873Y434873D01*
X171865Y434059D01*
X172996Y433455D01*
X174223Y433082D01*
X175000Y433006D01*
Y439000D01*
D02*
G37*
G36*
X181994D02*
X176000D01*
Y433006D01*
X176777Y433082D01*
X178004Y433455D01*
X179135Y434059D01*
X180127Y434873D01*
X180940Y435865D01*
X181545Y436996D01*
X181918Y438224D01*
X181994Y439000D01*
D02*
G37*
G36*
X161994D02*
X156000D01*
Y433006D01*
X156776Y433082D01*
X158004Y433455D01*
X159135Y434059D01*
X160127Y434873D01*
X160941Y435865D01*
X161545Y436996D01*
X161918Y438224D01*
X161994Y439000D01*
D02*
G37*
G36*
X251000Y432223D02*
Y431000D01*
X252223D01*
X252184Y431197D01*
X251789Y431789D01*
X251197Y432184D01*
X251000Y432223D01*
D02*
G37*
G36*
X250000D02*
X249803Y432184D01*
X249211Y431789D01*
X248816Y431197D01*
X248777Y431000D01*
X250000D01*
Y432223D01*
D02*
G37*
G36*
X252223Y430000D02*
X251000D01*
Y428777D01*
X251197Y428816D01*
X251789Y429211D01*
X252184Y429803D01*
X252223Y430000D01*
D02*
G37*
G36*
X250000D02*
X248777D01*
X248816Y429803D01*
X249211Y429211D01*
X249803Y428816D01*
X250000Y428777D01*
Y430000D01*
D02*
G37*
G36*
X242256Y454724D02*
X205500D01*
X205032Y454630D01*
X204635Y454365D01*
X171135Y420865D01*
X170870Y420468D01*
X170776Y420000D01*
Y373000D01*
X170870Y372532D01*
X171135Y372135D01*
X174135Y369135D01*
X174532Y368870D01*
X175000Y368776D01*
X190654D01*
X190920Y368599D01*
X191500Y368483D01*
X192080Y368599D01*
X192572Y368928D01*
X192901Y369420D01*
X193017Y370000D01*
X192901Y370580D01*
X192572Y371072D01*
X192080Y371401D01*
X191500Y371516D01*
X190920Y371401D01*
X190654Y371223D01*
X175507D01*
X173223Y373507D01*
Y419493D01*
X206007Y452277D01*
X241749D01*
X249777Y444249D01*
Y442756D01*
X249870Y442288D01*
X250135Y441891D01*
X263828Y428198D01*
X263703Y427570D01*
X263477Y427422D01*
X263259Y427306D01*
X247223Y443342D01*
Y444835D01*
X247130Y445303D01*
X246865Y445700D01*
X241865Y450700D01*
X241468Y450965D01*
X241000Y451058D01*
X206335D01*
X205867Y450965D01*
X205470Y450700D01*
X175135Y420365D01*
X174870Y419968D01*
X174776Y419500D01*
Y374500D01*
X174870Y374032D01*
X175135Y373635D01*
X175532Y373370D01*
X176000Y373276D01*
X193493D01*
X195776Y370993D01*
Y368346D01*
X195599Y368080D01*
X195484Y367500D01*
X195599Y366920D01*
X195928Y366428D01*
X196420Y366099D01*
X197000Y365984D01*
X197580Y366099D01*
X198072Y366428D01*
X198401Y366920D01*
X198516Y367500D01*
X198401Y368080D01*
X198223Y368346D01*
Y371500D01*
X198130Y371968D01*
X197865Y372365D01*
X194865Y375365D01*
X194468Y375630D01*
X194000Y375724D01*
X177224D01*
Y418993D01*
X206842Y448611D01*
X230037D01*
X230299Y448111D01*
X230277Y448000D01*
X233723D01*
X233701Y448111D01*
X233963Y448611D01*
X240493D01*
X244777Y444328D01*
Y442835D01*
X244870Y442367D01*
X245135Y441970D01*
X263828Y423277D01*
X263697Y422618D01*
X263888Y421654D01*
X264435Y420836D01*
X264686Y420669D01*
X264534Y420168D01*
X263745D01*
Y415225D01*
X268688D01*
Y420168D01*
X267899D01*
X267747Y420669D01*
X267999Y420836D01*
X268545Y421654D01*
X268737Y422618D01*
X268545Y423583D01*
X267999Y424400D01*
X267419Y424788D01*
Y425370D01*
X267999Y425757D01*
X268545Y426575D01*
X268737Y427539D01*
X268545Y428504D01*
X267999Y429321D01*
X267419Y429709D01*
Y430291D01*
X267999Y430679D01*
X268545Y431496D01*
X268737Y432461D01*
X268545Y433425D01*
X267999Y434243D01*
X267419Y434630D01*
Y435213D01*
X267999Y435600D01*
X268545Y436417D01*
X268737Y437382D01*
X268545Y438346D01*
X267999Y439164D01*
X267632Y439409D01*
X267712Y439957D01*
X268193Y440326D01*
X268638Y440905D01*
X268917Y441580D01*
X268946Y441803D01*
X266217D01*
X263487D01*
X263516Y441580D01*
X263796Y440905D01*
X264240Y440326D01*
X264721Y439957D01*
X264801Y439409D01*
X264435Y439164D01*
X263888Y438346D01*
X263697Y437382D01*
X263888Y436417D01*
X264435Y435600D01*
X265014Y435213D01*
Y434630D01*
X264435Y434243D01*
X263888Y433425D01*
X263703Y432491D01*
X263477Y432343D01*
X263259Y432227D01*
X252223Y443263D01*
Y444756D01*
X252130Y445224D01*
X251865Y445621D01*
X243121Y454365D01*
X242724Y454630D01*
X242256Y454724D01*
D02*
G37*
G36*
X251000Y421963D02*
Y420740D01*
X252223D01*
X252184Y420938D01*
X251789Y421529D01*
X251197Y421924D01*
X251000Y421963D01*
D02*
G37*
G36*
X250000D02*
X249803Y421924D01*
X249211Y421529D01*
X248816Y420938D01*
X248777Y420740D01*
X250000D01*
Y421963D01*
D02*
G37*
G36*
X234500Y429016D02*
X233920Y428901D01*
X233428Y428572D01*
X233099Y428080D01*
X232983Y427500D01*
X233099Y426920D01*
X233428Y426428D01*
X233920Y426099D01*
X234233Y426037D01*
X237277Y422993D01*
Y418950D01*
X237000Y418723D01*
X186346D01*
X186080Y418901D01*
X185500Y419017D01*
X184920Y418901D01*
X184428Y418572D01*
X184099Y418080D01*
X183984Y417500D01*
X184099Y416920D01*
X184428Y416428D01*
X184920Y416099D01*
X185500Y415983D01*
X186080Y416099D01*
X186346Y416277D01*
X236493D01*
X237277Y415493D01*
Y410000D01*
X237370Y409532D01*
X237635Y409135D01*
X239135Y407635D01*
X239532Y407370D01*
X240000Y407276D01*
X243654D01*
X243920Y407099D01*
X244500Y406984D01*
X245080Y407099D01*
X245572Y407428D01*
X245901Y407920D01*
X246017Y408500D01*
X245901Y409080D01*
X245572Y409572D01*
X245080Y409901D01*
X244500Y410016D01*
X243920Y409901D01*
X243654Y409724D01*
X240507D01*
X239723Y410507D01*
Y416000D01*
Y423500D01*
X239630Y423968D01*
X239365Y424365D01*
X235964Y427767D01*
X235901Y428080D01*
X235572Y428572D01*
X235080Y428901D01*
X234500Y429016D01*
D02*
G37*
G36*
X252223Y419740D02*
X251000D01*
Y418517D01*
X251197Y418556D01*
X251789Y418952D01*
X252184Y419543D01*
X252223Y419740D01*
D02*
G37*
G36*
X250000D02*
X248777D01*
X248816Y419543D01*
X249211Y418952D01*
X249803Y418556D01*
X250000Y418517D01*
Y419740D01*
D02*
G37*
G36*
X273843Y385076D02*
X273014D01*
Y381937D01*
X277416D01*
X277358Y382379D01*
X276994Y383257D01*
X276416Y384010D01*
X275662Y384589D01*
X274784Y384952D01*
X273843Y385076D01*
D02*
G37*
G36*
X272014D02*
X271185D01*
X270243Y384952D01*
X269365Y384589D01*
X268612Y384010D01*
X268033Y383257D01*
X267670Y382379D01*
X267612Y381937D01*
X272014D01*
Y385076D01*
D02*
G37*
G36*
X277416Y380937D02*
X273014D01*
Y377798D01*
X273843D01*
X274784Y377922D01*
X275662Y378285D01*
X276416Y378864D01*
X276994Y379617D01*
X277358Y380495D01*
X277416Y380937D01*
D02*
G37*
G36*
X272014D02*
X267612D01*
X267670Y380495D01*
X268033Y379617D01*
X268612Y378864D01*
X269365Y378285D01*
X270243Y377922D01*
X271185Y377798D01*
X272014D01*
Y380937D01*
D02*
G37*
G36*
X190000Y404517D02*
X189420Y404401D01*
X188928Y404072D01*
X188599Y403580D01*
X188484Y403000D01*
X188599Y402420D01*
X188800Y402119D01*
X188777Y402000D01*
Y396500D01*
X188870Y396032D01*
X189135Y395635D01*
X207135Y377635D01*
X207532Y377370D01*
X208000Y377276D01*
X227154D01*
X227420Y377099D01*
X228000Y376983D01*
X228580Y377099D01*
X229072Y377428D01*
X229401Y377920D01*
X229517Y378500D01*
X229401Y379080D01*
X229072Y379572D01*
X228580Y379901D01*
X228000Y380016D01*
X227420Y379901D01*
X227154Y379724D01*
X208507D01*
X191224Y397007D01*
Y402000D01*
X191200Y402119D01*
X191401Y402420D01*
X191516Y403000D01*
X191401Y403580D01*
X191072Y404072D01*
X190580Y404401D01*
X190000Y404517D01*
D02*
G37*
G36*
X261274Y376456D02*
X260986D01*
Y374260D01*
X263904D01*
X263878Y374458D01*
X263609Y375108D01*
X263180Y375666D01*
X262622Y376095D01*
X261971Y376364D01*
X261274Y376456D01*
D02*
G37*
G36*
X259986D02*
X259699D01*
X259001Y376364D01*
X258351Y376095D01*
X257792Y375666D01*
X257364Y375108D01*
X257094Y374458D01*
X257068Y374260D01*
X259986D01*
Y376456D01*
D02*
G37*
G36*
X198000Y413517D02*
X197420Y413401D01*
X196928Y413072D01*
X196599Y412580D01*
X196484Y412000D01*
X196599Y411420D01*
X196928Y410928D01*
X197420Y410599D01*
X198000Y410484D01*
X198580Y410599D01*
X198846Y410777D01*
X209493D01*
X232776Y387493D01*
Y376007D01*
X227993Y371223D01*
X224346D01*
X224080Y371401D01*
X223500Y371516D01*
X222920Y371401D01*
X222428Y371072D01*
X222099Y370580D01*
X221984Y370000D01*
X222099Y369420D01*
X222428Y368928D01*
X222920Y368599D01*
X223500Y368483D01*
X224080Y368599D01*
X224346Y368776D01*
X228500D01*
X228968Y368870D01*
X229365Y369135D01*
X234865Y374635D01*
X235130Y375032D01*
X235224Y375500D01*
Y388000D01*
X235130Y388468D01*
X234865Y388865D01*
X210865Y412865D01*
X210468Y413130D01*
X210000Y413224D01*
X198846D01*
X198580Y413401D01*
X198000Y413517D01*
D02*
G37*
G36*
X263904Y373260D02*
X260986D01*
Y371063D01*
X261274D01*
X261971Y371155D01*
X262622Y371425D01*
X263180Y371853D01*
X263609Y372412D01*
X263878Y373062D01*
X263904Y373260D01*
D02*
G37*
G36*
X259986D02*
X257068D01*
X257094Y373062D01*
X257364Y372412D01*
X257792Y371853D01*
X258351Y371425D01*
X259001Y371155D01*
X259699Y371063D01*
X259986D01*
Y373260D01*
D02*
G37*
G36*
X261274Y358937D02*
X260986D01*
Y356740D01*
X263904D01*
X263878Y356938D01*
X263609Y357588D01*
X263180Y358147D01*
X262622Y358575D01*
X261971Y358845D01*
X261274Y358937D01*
D02*
G37*
G36*
X259986D02*
X259699D01*
X259001Y358845D01*
X258351Y358575D01*
X257792Y358147D01*
X257364Y357588D01*
X257094Y356938D01*
X257068Y356740D01*
X259986D01*
Y358937D01*
D02*
G37*
G36*
X263904Y355740D02*
X260986D01*
Y353544D01*
X261274D01*
X261971Y353636D01*
X262622Y353905D01*
X263180Y354334D01*
X263609Y354892D01*
X263878Y355542D01*
X263904Y355740D01*
D02*
G37*
G36*
X259986D02*
X257068D01*
X257094Y355542D01*
X257364Y354892D01*
X257792Y354334D01*
X258351Y353905D01*
X259001Y353636D01*
X259699Y353544D01*
X259986D01*
Y355740D01*
D02*
G37*
G36*
X162500Y361868D02*
Y353500D01*
X170868D01*
X170746Y354740D01*
X170238Y356412D01*
X169414Y357954D01*
X168305Y359305D01*
X166954Y360414D01*
X165412Y361238D01*
X163740Y361746D01*
X162500Y361868D01*
D02*
G37*
G36*
X161500D02*
X160260Y361746D01*
X158588Y361238D01*
X157046Y360414D01*
X155695Y359305D01*
X154586Y357954D01*
X153762Y356412D01*
X153254Y354740D01*
X153132Y353500D01*
X161500D01*
Y361868D01*
D02*
G37*
G36*
X189500Y367017D02*
X188920Y366901D01*
X188428Y366572D01*
X188099Y366080D01*
X187984Y365500D01*
X188099Y364920D01*
X188428Y364428D01*
X188920Y364099D01*
X189233Y364036D01*
X192135Y361135D01*
X192532Y360870D01*
X193000Y360776D01*
X211993D01*
X219135Y353635D01*
X219532Y353370D01*
X220000Y353276D01*
X239654D01*
X239920Y353099D01*
X240500Y352983D01*
X241080Y353099D01*
X241572Y353428D01*
X241901Y353920D01*
X242017Y354500D01*
X241901Y355080D01*
X241572Y355572D01*
X241080Y355901D01*
X240500Y356016D01*
X239920Y355901D01*
X239654Y355724D01*
X220507D01*
X213365Y362865D01*
X212968Y363130D01*
X212500Y363224D01*
X193507D01*
X190963Y365767D01*
X190901Y366080D01*
X190572Y366572D01*
X190080Y366901D01*
X189500Y367017D01*
D02*
G37*
G36*
X273843Y352202D02*
X273014D01*
Y349063D01*
X277416D01*
X277358Y349505D01*
X276994Y350383D01*
X276416Y351136D01*
X275662Y351715D01*
X274784Y352078D01*
X273843Y352202D01*
D02*
G37*
G36*
X272014D02*
X271185D01*
X270243Y352078D01*
X269365Y351715D01*
X268612Y351136D01*
X268033Y350383D01*
X267670Y349505D01*
X267612Y349063D01*
X272014D01*
Y352202D01*
D02*
G37*
%LPD*%
D26*
X239500Y440000D02*
X242500D01*
X232000Y447500D02*
X239500Y440000D01*
X240000Y408500D02*
X244500D01*
X238500Y410000D02*
X240000Y408500D01*
X234500Y427500D02*
X238500Y423500D01*
X260486Y373760D02*
Y376933D01*
X250500Y386919D02*
X260486Y376933D01*
X250500Y386919D02*
Y430500D01*
X197000Y367500D02*
Y371500D01*
X194000Y374500D02*
X197000Y371500D01*
X176000Y374500D02*
X194000D01*
X176000D02*
Y419500D01*
X206335Y449835D01*
X241000D01*
X175000Y370000D02*
X191500D01*
X172000Y373000D02*
X175000Y370000D01*
X172000Y373000D02*
Y420000D01*
X205500Y453500D01*
X242256D01*
X198000Y412000D02*
X210000D01*
X234000Y388000D01*
Y375500D02*
Y388000D01*
X228500Y370000D02*
X234000Y375500D01*
X223500Y370000D02*
X228500D01*
X190000Y396500D02*
Y402000D01*
Y396500D02*
X208000Y378500D01*
X228000D01*
X220000Y354500D02*
X240500D01*
X212500Y362000D02*
X220000Y354500D01*
X189500Y365500D02*
X193000Y362000D01*
X212500D01*
X251000Y442756D02*
X266217Y427539D01*
X251000Y442756D02*
Y444756D01*
X242256Y453500D02*
X251000Y444756D01*
X241000Y449835D02*
X246000Y444835D01*
Y442835D02*
Y444835D01*
Y442835D02*
X266217Y422618D01*
X185500Y417500D02*
X237000D01*
X238500Y416000D01*
Y410000D02*
Y416000D01*
Y423500D01*
X163000Y352700D02*
Y383500D01*
D27*
X273000Y457500D02*
D03*
X162000Y353000D02*
D03*
D28*
X165500Y449500D02*
D03*
D29*
X155500Y439500D02*
D03*
X175500D02*
D03*
Y459500D02*
D03*
X155500D02*
D03*
D30*
X266217Y442303D02*
D03*
Y422618D02*
D03*
Y427539D02*
D03*
Y432461D02*
D03*
Y437382D02*
D03*
D31*
Y417697D02*
D03*
D32*
X260486Y356240D02*
D03*
Y373760D02*
D03*
D33*
X272514Y381437D02*
D03*
Y348563D02*
D03*
D34*
X232000Y447500D02*
D03*
X242500Y440000D02*
D03*
X244500Y408500D02*
D03*
X234500Y427500D02*
D03*
X250500Y420240D02*
D03*
Y430500D02*
D03*
X197000Y367500D02*
D03*
X191500Y370000D02*
D03*
X198000Y412000D02*
D03*
X223500Y370000D02*
D03*
X190000Y403000D02*
D03*
X228000Y378500D02*
D03*
X240500Y354500D02*
D03*
X189500Y365500D02*
D03*
X185500Y417500D02*
D03*
M02*
