G04 Layer_Color=8421504*
%FSLAX25Y25*%
%MOIN*%
G70*
G01*
G75*
%ADD10R,0.01772X0.01181*%
%ADD11R,0.01181X0.01772*%
%ADD12R,0.03543X0.03150*%
%ADD14R,0.04134X0.04331*%
%ADD15R,0.04331X0.08858*%
%ADD16R,0.08858X0.03346*%
%ADD17R,0.05315X0.01575*%
%ADD18R,0.02756X0.03543*%
%ADD19R,0.03150X0.03543*%
%ADD20R,0.03158X0.03827*%
%ADD21R,0.06693X0.07087*%
%ADD22R,0.05709X0.02362*%
%ADD23R,0.05100X0.05900*%
%ADD24R,0.01200X0.03200*%
%ADD25R,0.03543X0.02756*%
%ADD42R,0.03150X0.04724*%
%ADD43R,0.02362X0.06299*%
D10*
X235480Y443953D02*
D03*
Y441984D02*
D03*
Y440016D02*
D03*
Y438047D02*
D03*
X245520D02*
D03*
Y440016D02*
D03*
Y441984D02*
D03*
Y443953D02*
D03*
D11*
X237547Y435980D02*
D03*
X239516D02*
D03*
X241484D02*
D03*
X243453D02*
D03*
Y446020D02*
D03*
X241484D02*
D03*
X239516D02*
D03*
X237547D02*
D03*
D12*
X250500Y436744D02*
D03*
Y442256D02*
D03*
X255500Y436744D02*
D03*
Y442256D02*
D03*
X260500Y416744D02*
D03*
Y422256D02*
D03*
X234500Y413244D02*
D03*
Y418756D02*
D03*
D14*
X195000Y447398D02*
D03*
D15*
X200807Y453500D02*
D03*
X189193D02*
D03*
D16*
X225327Y392047D02*
D03*
Y397953D02*
D03*
D17*
X261470Y359882D02*
D03*
Y362441D02*
D03*
Y365000D02*
D03*
Y367559D02*
D03*
Y370118D02*
D03*
D18*
X216453Y439500D02*
D03*
X210547D02*
D03*
Y445000D02*
D03*
X216453D02*
D03*
X197953Y435500D02*
D03*
X192047D02*
D03*
X247453Y361500D02*
D03*
X241547D02*
D03*
X247453Y367000D02*
D03*
X241547D02*
D03*
X247453Y373000D02*
D03*
X241547D02*
D03*
X207047Y367500D02*
D03*
X212953D02*
D03*
Y372500D02*
D03*
X207047D02*
D03*
D19*
X198244Y441000D02*
D03*
X203756D02*
D03*
X201744Y350500D02*
D03*
X207256D02*
D03*
X201744Y357000D02*
D03*
X207256D02*
D03*
X191756Y441000D02*
D03*
X186244D02*
D03*
D20*
X228000Y354063D02*
D03*
X224260Y361937D02*
D03*
X231740D02*
D03*
D21*
X265500Y405071D02*
D03*
Y388929D02*
D03*
D22*
X187626Y359000D02*
D03*
X178374Y355260D02*
D03*
Y362740D02*
D03*
X253626Y416500D02*
D03*
X244374Y412760D02*
D03*
Y420240D02*
D03*
D23*
X226000Y440500D02*
D03*
D24*
X229000Y435000D02*
D03*
X227000D02*
D03*
X225000D02*
D03*
X223000D02*
D03*
Y446000D02*
D03*
X225000D02*
D03*
X227000D02*
D03*
X229000D02*
D03*
D25*
X247000Y458453D02*
D03*
Y452547D02*
D03*
X239500D02*
D03*
Y458453D02*
D03*
D42*
X211559Y428075D02*
D03*
X207228D02*
D03*
X202898D02*
D03*
X198567D02*
D03*
X194236D02*
D03*
X189906D02*
D03*
X185575D02*
D03*
X173764D02*
D03*
X169433D02*
D03*
X165102D02*
D03*
X160772D02*
D03*
X156441D02*
D03*
Y378961D02*
D03*
X160772D02*
D03*
X165102D02*
D03*
X169433D02*
D03*
X173764D02*
D03*
X185575D02*
D03*
X189906D02*
D03*
X194236D02*
D03*
X202898D02*
D03*
X207228D02*
D03*
X211559D02*
D03*
X198567D02*
D03*
D43*
X211559Y426500D02*
D03*
X207228D02*
D03*
X202898D02*
D03*
X198567D02*
D03*
X194236D02*
D03*
X189906D02*
D03*
X185575D02*
D03*
X173764D02*
D03*
X169433D02*
D03*
X165102D02*
D03*
X160772D02*
D03*
X156441D02*
D03*
Y380500D02*
D03*
X160772D02*
D03*
X165102D02*
D03*
X169433D02*
D03*
X173764D02*
D03*
X185575D02*
D03*
X189906D02*
D03*
X194236D02*
D03*
X198567D02*
D03*
X202898D02*
D03*
X207228D02*
D03*
X211559D02*
D03*
M02*
