G04 Layer_Color=16711935*
%FSLAX25Y25*%
%MOIN*%
G70*
G01*
G75*
%ADD40C,0.00787*%
%ADD72C,0.00394*%
D40*
X264248Y411791D02*
Y448209D01*
Y411791D02*
X282752D01*
Y448209D01*
X264248D02*
X282752D01*
D72*
X248630Y436055D02*
Y442945D01*
X252370Y436055D02*
Y442945D01*
X248630Y436055D02*
X252370D01*
X248630Y442945D02*
X252370D01*
X253630Y436055D02*
Y442945D01*
X257370Y436055D02*
Y442945D01*
X253630Y436055D02*
X257370D01*
X253630Y442945D02*
X257370D01*
X258630Y416055D02*
X262370D01*
X258630Y422945D02*
X262370D01*
X258630Y416055D02*
Y422945D01*
X262370Y416055D02*
Y422945D01*
X210154Y437630D02*
X216846D01*
X210154Y441370D02*
X216846D01*
Y437630D02*
Y441370D01*
X210154Y437630D02*
Y441370D01*
Y446870D02*
X216846D01*
X210154Y443130D02*
X216846D01*
X210154D02*
Y446870D01*
X216846Y443130D02*
Y446870D01*
X197555Y439130D02*
Y442870D01*
X204445Y439130D02*
Y442870D01*
X197555D02*
X204445D01*
X197555Y439130D02*
X204445D01*
X198346Y433630D02*
Y437370D01*
X191654Y433630D02*
Y437370D01*
Y433630D02*
X198346D01*
X191654Y437370D02*
X198346D01*
X201055Y348630D02*
Y352370D01*
X207945Y348630D02*
Y352370D01*
X201055D02*
X207945D01*
X201055Y348630D02*
X207945D01*
X201055Y355130D02*
Y358870D01*
X207945Y355130D02*
Y358870D01*
X201055D02*
X207945D01*
X201055Y355130D02*
X207945D01*
X247846Y359630D02*
Y363370D01*
X241154Y359630D02*
Y363370D01*
Y359630D02*
X247846D01*
X241154Y363370D02*
X247846D01*
Y365130D02*
Y368870D01*
X241154Y365130D02*
Y368870D01*
Y365130D02*
X247846D01*
X241154Y368870D02*
X247846D01*
X241154Y371130D02*
X247846D01*
X241154Y374870D02*
X247846D01*
Y371130D02*
Y374870D01*
X241154Y371130D02*
Y374870D01*
X232630Y412555D02*
X236370D01*
X232630Y419445D02*
X236370D01*
X232630Y412555D02*
Y419445D01*
X236370Y412555D02*
Y419445D01*
X180244Y353095D02*
X185756D01*
X180244Y364906D02*
X185756D01*
Y353095D02*
Y364906D01*
X180244Y353095D02*
Y364906D01*
X206654Y369370D02*
X213346D01*
X206654Y365630D02*
X213346D01*
X206654D02*
Y369370D01*
X213346Y365630D02*
Y369370D01*
X206654Y370630D02*
X213346D01*
X206654Y374370D02*
X213346D01*
Y370630D02*
Y374370D01*
X206654Y370630D02*
Y374370D01*
X246244Y410595D02*
X251756D01*
X246244Y422405D02*
X251756D01*
Y410595D02*
Y422405D01*
X246244Y410595D02*
Y422405D01*
X248870Y452154D02*
Y458846D01*
X245130Y452154D02*
Y458846D01*
X248870D01*
X245130Y452154D02*
X248870D01*
X237630D02*
Y458846D01*
X241370Y452154D02*
Y458846D01*
X237630Y452154D02*
X241370D01*
X237630Y458846D02*
X241370D01*
X185555Y439130D02*
X192445D01*
X185555Y442870D02*
X192445D01*
Y439130D02*
Y442870D01*
X185555Y439130D02*
Y442870D01*
M02*
